<svg xmlns="http://www.w3.org/2000/svg" width="128" height="128">
  <!-- Background -->
  <rect width="124" height="124" x="2" y="2" fill="#1e3a5f" stroke="#0d1f33" stroke-width="4" rx="14"/>
  
  <!-- Orca silhouette -->
  <g transform="translate(64, 64)">
    <!-- Body -->
    <ellipse cx="0" cy="0" rx="38" ry="28" fill="#ffffff"/>
    
    <!-- Tail fin -->
    <path d="M 25,5 Q 35,0 40,-8 Q 42,-10 45,-10 Q 46,-8 45,-6 Q 42,-2 38,2 Q 35,8 25,12 Z" fill="#ffffff"/>
    <path d="M 25,5 Q 35,10 40,18 Q 42,20 45,20 Q 46,18 45,16 Q 42,12 38,8 Q 35,2 25,0 Z" fill="#ffffff"/>
    
    <!-- Dorsal fin -->
    <path d="M -5,-28 Q -3,-35 0,-38 Q 2,-35 4,-28 L 0,-20 Z" fill="#ffffff"/>
    
    <!-- Pectoral fin -->
    <ellipse cx="-10" cy="8" rx="15" ry="6" fill="#ffffff" transform="rotate(-20 -10 8)"/>
    
    <!-- Eye patch (characteristic orca marking) -->
    <ellipse cx="-18" cy="-8" rx="8" ry="6" fill="#1e3a5f"/>
    
    <!-- Eye -->
    <circle cx="-18" cy="-8" r="2" fill="#ffffff"/>
  </g>
  
  <!-- Wave effect at bottom -->
  <path d="M 10,105 Q 30,100 50,105 T 90,105 T 118,105" stroke="#4a90e2" stroke-width="2" fill="none" opacity="0.6"/>
  <path d="M 10,110 Q 30,115 50,110 T 90,110 T 118,110" stroke="#4a90e2" stroke-width="2" fill="none" opacity="0.4"/>
</svg>