<svg xmlns="http://www.w3.org/2000/svg" width="16" height="16" viewBox="0 0 16 16">
  <path fill="#fff" d="M8 1a7 7 0 1 1 0 14A7 7 0 0 1 8 1Zm3.2 6.2c0-2.21-2.014-3.8-4.2-3.8-2.08 0-3.85 1.39-4.142 3.29-.07.453.42.768.83.553 1.04-.54 1.922-.79 2.657-.75.71.04 1.327.3 1.85.61.66.4 1.43.6 2.405.6.35 0 .6.26.6.5 0 .44-.36.8-.8.8-.9 0-1.73-.23-2.47-.67-.45-.27-.95-.32-1.46-.12-.59.24-1.33.64-2.3 1.29-.42.28-.97-.09-.97-.58 0-2.87 2.42-5.2 5.28-5.2 2.92 0 5.397 2.32 5.397 5.2 0 .66-.54 1.2-1.2 1.2-.66 0-1.2-.54-1.2-1.2Z"/>
</svg>
