<svg xmlns="http://www.w3.org/2000/svg" width="64" height="64" viewBox="0 0 64 64">
  <g fill="none" fill-rule="evenodd">
    <path fill="#fff" fill-opacity=".6" d="M14 5a4 4 0 0 0-4 4v46a4 4 0 0 0 4 4h36a4 4 0 0 0 4-4V22a1 1 0 0 0-.293-.707l-16-16A1 1 0 0 0 37 5H14Zm22 2v12a4 4 0 0 0 4 4h12v32a2 2 0 0 1-2 2H14a2 2 0 0 1-2-2V9a2 2 0 0 1 2-2h22Z"/>
    <circle cx="32" cy="40" r="14" fill="#111"/>
    <path fill="#fff" d="M32 29c5 0 9 4 9 9 0 1.1-.9 2-2 2-1.68 0-3.3-.45-4.68-1.3-.95-.57-2.01-.45-2.98-.07-1.19.48-2.51 1.25-4.14 2.35C24.8 41.96 23 40.77 23 38c0-5 4-9 9-9Z"/>
    <circle cx="38.5" cy="35.5" r="1.8" fill="#111"/>
  </g>
</svg>
